<svg xmlns="http://www.w3.org/2000/svg" height="20" viewBox="0 -960 960 960" width="20"><path d="m480-161.846-38.308-36.385q-105.923-97.461-172.5-163.153-66.577-65.693-103.154-112.847-36.577-47.154-49.307-85.038Q104-597.154 104-637q0-82.308 58.846-140.654Q221.692-836 305-836q45.769 0 92 23.5t83 68.038Q516.769-789 563-812.5t92-23.5q83.308 0 142.154 58.346Q856-719.308 856-637q0 39.846-12.231 76.731-12.23 36.884-48.807 83.538-36.577 46.654-103.269 113.347Q625-296.692 516.308-196.231L480-161.846Z"/></svg>